<svg width="16" height="16" viewBox="0 0 16 16" fill="none" xmlns="http://www.w3.org/2000/svg">
<path d="M13.8441 0H2.15628C0.965556 0 0.000244141 0.965273 0.000244141 2.15603V13.8439C0.000244141 15.0346 0.965517 15.9999 2.15628 15.9999H7.92063L7.93046 10.2824H6.44505C6.25201 10.2824 6.09534 10.1263 6.09459 9.93329L6.08747 8.0903C6.08672 7.8962 6.24387 7.73847 6.43797 7.73847H7.92067V5.95767C7.92067 3.89107 9.18282 2.7658 11.0264 2.7658H12.5391C12.7327 2.7658 12.8896 2.92271 12.8896 3.1163V4.67031C12.8896 4.86382 12.7328 5.0207 12.5393 5.02081L11.611 5.02124C10.6084 5.02124 10.4142 5.49766 10.4142 6.19682V7.73851H12.6172C12.8272 7.73851 12.99 7.9218 12.9653 8.13026L12.7468 9.97325C12.7259 10.1496 12.5764 10.2825 12.3988 10.2825H10.4241L10.4142 16H13.8441C15.0349 16 16.0001 15.0347 16.0001 13.844V2.15603C16.0001 0.965273 15.0348 0 13.8441 0Z" fill="#263238"/>
</svg>
