<svg width="16" height="14" viewBox="0 0 16 14" fill="none" xmlns="http://www.w3.org/2000/svg">
<path d="M16 1.70616C15.4111 1.9671 14.7792 2.14407 14.1153 2.22307C14.7932 1.81714 15.3121 1.17327 15.558 0.408405C14.9222 0.784326 14.2203 1.05729 13.4724 1.20527C12.8735 0.566392 12.0217 0.168457 11.0769 0.168457C9.26421 0.168457 7.79448 1.63818 7.79448 3.44984C7.79448 3.70678 7.82348 3.95774 7.87948 4.19771C5.152 4.06072 2.73346 2.75397 1.11477 0.768326C0.831817 1.25225 0.67085 1.81612 0.67085 2.41803C0.67085 3.55682 1.25075 4.56163 2.13059 5.1495C1.59268 5.13152 1.08677 4.98354 0.643869 4.73758V4.77858C0.643869 6.36828 1.77566 7.69502 3.27637 7.99698C3.00141 8.07097 2.71148 8.11196 2.41153 8.11196C2.19958 8.11196 1.99461 8.09097 1.79365 8.05097C2.21156 9.35573 3.42335 10.3045 4.85908 10.3306C3.73629 11.2104 2.32055 11.7333 0.78285 11.7333C0.517909 11.7333 0.256941 11.7173 0 11.6883C1.45273 12.6211 3.17741 13.165 5.03106 13.165C11.0689 13.165 14.3693 8.16396 14.3693 3.82678L14.3583 3.40187C15.0032 2.94192 15.561 2.36404 16 1.70616Z" fill="#263238"/>
</svg>
