<svg width="245" height="155" viewBox="0 0 245 155" fill="none" xmlns="http://www.w3.org/2000/svg">
<g clip-path="url(#clip0_4301_47391)">
<rect width="245" height="154.488" rx="8.84471" fill="url(#paint0_linear_4301_47391)"/>
<path fill-rule="evenodd" clip-rule="evenodd" d="M134.004 56.4286C130.221 54.8223 126.18 54.0451 122.034 54.0451C113.847 54.0451 106.075 57.2576 100.272 63.0092C94.5201 68.8126 91.3075 76.585 91.3075 84.7719C91.3075 90.5752 92.862 96.1713 95.971 101.094L97.0073 102.752L85.5042 107.208L84.7787 106.016C81.0998 99.5394 79.1826 92.2333 79.1826 84.7719C79.1826 73.3724 83.6906 62.5429 91.7221 54.4596C99.8053 46.4281 110.635 41.9202 122.034 41.9202C133.434 41.9202 144.263 46.4281 152.347 54.4596C153.642 55.755 154.834 57.154 155.974 58.553L157.321 60.3148L103.173 81.352L103.225 78.8648C103.432 72.3361 104.728 67.7763 111.049 65.3409L134.004 56.4286ZM103.225 85.3936L127.734 75.8595C133.693 73.5796 139.652 75.9632 139.652 83.1137V84.2019L115.143 93.6842C113.433 94.3578 111.464 94.5132 109.702 94.2541C105.557 93.5805 103.225 90.627 103.225 86.4818V85.3936ZM109.547 112.908C113.433 114.618 117.682 115.55 122.034 115.55C130.221 115.55 137.994 112.338 143.797 106.535C149.6 100.731 152.813 92.9588 152.813 84.7719C152.813 78.8648 151.103 73.1133 147.89 68.139L146.802 66.4291L158.357 61.9729L159.031 63.1647C162.917 69.7453 164.886 77.1549 164.886 84.7719C164.886 96.1713 160.43 107.001 152.347 115.084C144.263 123.167 133.434 127.624 122.034 127.624C110.635 127.624 99.8053 123.167 91.7221 115.084C90.323 113.685 89.0276 112.182 87.8359 110.628L86.5405 108.866L139.704 88.2435L139.652 90.6789C139.444 97.2076 138.149 101.767 131.828 104.203L109.547 112.908Z" fill="white" fill-opacity="0.1"/>
<path opacity="0.25" d="M4.06706 27.7811C-6.32952 18.2207 -12.639 4.60419 -14.9319 -11.7888C-15.9022 -18.7083 -16.2708 -25.85 -18.9648 -32.2652C-21.6588 -38.6857 -27.4046 -44.3742 -34.1965 -44.3471C-42.5333 -44.3091 -48.653 -35.9309 -50.8809 -27.6612C-55.5642 -10.2704 -54.9625 9.95645 -42.0346 23.7628C-31.9686 34.5161 -16.7749 39.7599 -7.85269 51.4731C0.78764 62.8121 2.35959 78.7604 12.4038 88.8793C17.6943 94.2099 24.844 97.3334 32.0966 99.291C42.3685 102.057 53.5294 102.642 63.4869 98.9114C73.4499 95.1805 81.9384 86.5909 83.6838 76.0924C88.2588 48.5719 53.0849 44.9387 34.5901 41.929C22.0795 39.8901 11.9106 34.9879 4.06706 27.7811Z" fill="white"/>
<path opacity="0.25" d="M292.636 99.3874C279.707 103.129 266.32 94.6076 257.453 84.4596C248.587 74.3117 241.893 62.0036 231.046 54.0157C208.003 37.0657 171.482 47.8111 157.59 72.8501C143.699 97.8983 151.181 131.477 171.409 151.727C191.627 171.977 222.069 179.771 250.494 176.766C275.471 174.128 299.962 163.419 317.044 144.97C334.127 126.522 343.058 100.077 338.189 75.3779C335.337 60.9097 319.951 42.057 312.79 60.6156C307.242 75.0378 312.753 93.5689 292.636 99.3874Z" fill="#4A148C"/>
<path opacity="0.1" d="M145.231 15.3065C150.853 3.5092 145.847 -10.6121 134.05 -16.2344C122.253 -21.8566 108.131 -16.8508 102.509 -5.05345C96.8868 6.74387 101.893 20.8652 113.69 26.4875C125.487 32.1097 139.609 27.1038 145.231 15.3065Z" fill="white"/>
<path d="M202.163 117.567L200.27 128.68H203.298L205.194 117.567H202.163Z" fill="white"/>
<path d="M197.729 117.58L194.763 125.158L194.447 124.014C193.862 122.635 192.201 120.655 190.251 119.407L192.963 128.675L196.168 128.669L200.938 117.577L197.729 117.58Z" fill="white"/>
<path d="M193.297 118.376C193.121 117.699 192.611 117.497 191.978 117.473H187.282L187.243 117.694C190.897 118.581 193.315 120.717 194.319 123.285L193.297 118.376Z" fill="white"/>
<path d="M211.332 119.698C212.323 119.682 213.041 119.899 213.599 120.123L213.872 120.251L214.282 117.843C213.682 117.618 212.742 117.376 211.569 117.376C208.576 117.376 206.466 118.884 206.45 121.044C206.43 122.64 207.953 123.531 209.102 124.063C210.283 124.608 210.678 124.955 210.673 125.442C210.663 126.186 209.732 126.527 208.862 126.527C207.649 126.527 207.005 126.36 206.01 125.945L205.619 125.768L205.193 128.255C205.902 128.566 207.21 128.833 208.568 128.847C211.752 128.847 213.821 127.357 213.843 125.049C213.856 123.787 213.048 122.823 211.298 122.032C210.238 121.517 209.59 121.174 209.596 120.653C209.596 120.191 210.146 119.698 211.332 119.698Z" fill="white"/>
<path d="M222.055 117.579H219.715C218.988 117.579 218.447 117.777 218.128 118.502L213.631 128.686H216.811C216.811 128.686 217.33 127.317 217.448 127.017C217.796 127.017 220.886 127.022 221.327 127.022C221.417 127.409 221.696 128.686 221.696 128.686H224.506L222.055 117.579ZM218.32 124.742C218.569 124.104 219.526 121.636 219.526 121.636C219.51 121.667 219.773 120.994 219.93 120.575L220.134 121.534C220.134 121.534 220.714 124.187 220.836 124.742H218.32Z" fill="white"/>
<path d="M12.431 103.332L12.587 101.304H16.279V99.9H11.209L10.858 104.788H13.51C14.511 104.788 15.174 105.347 15.174 106.244C15.174 107.141 14.511 107.713 13.484 107.713C12.522 107.713 11.924 107.297 11.677 106.478L10.39 107.219C10.858 108.48 12.041 109.169 13.484 109.169C14.381 109.169 15.135 108.909 15.746 108.389C16.357 107.869 16.669 107.154 16.669 106.244C16.669 105.334 16.37 104.619 15.772 104.112C15.174 103.592 14.446 103.332 13.575 103.332H12.431ZM24.1219 107.882C24.7589 107.024 25.0709 105.88 25.0709 104.45C25.0709 103.02 24.7589 101.876 24.1219 101.018C23.4979 100.16 22.6269 99.731 21.4959 99.731C20.3649 99.731 19.4939 100.16 18.8569 101.018C18.2329 101.876 17.9209 103.02 17.9209 104.45C17.9209 105.88 18.2329 107.024 18.8569 107.882C19.4939 108.74 20.3649 109.169 21.4959 109.169C22.6269 109.169 23.4979 108.74 24.1219 107.882ZM21.4959 107.713C20.1569 107.713 19.4159 106.543 19.4159 104.45C19.4159 102.357 20.1569 101.187 21.4959 101.187C22.8479 101.187 23.5759 102.357 23.5759 104.45C23.5759 106.543 22.8479 107.713 21.4959 107.713ZM29.4893 102.955L31.5693 99.9H29.8663L26.9803 104.229C26.6163 104.762 26.4343 105.373 26.4343 106.062C26.4343 106.985 26.7333 107.726 27.3313 108.311C27.9293 108.883 28.7093 109.169 29.6583 109.169C30.6073 109.169 31.3743 108.883 31.9723 108.311C32.5703 107.726 32.8693 106.985 32.8693 106.062C32.8693 105.139 32.5703 104.398 31.9723 103.826C31.3743 103.241 30.6073 102.955 29.6583 102.955H29.4893ZM29.6583 107.752C28.6313 107.752 27.9293 107.089 27.9293 106.062C27.9293 105.035 28.6313 104.372 29.6583 104.372C30.6593 104.372 31.3743 105.035 31.3743 106.062C31.3743 107.089 30.6593 107.752 29.6583 107.752ZM32.8413 100.745L33.2053 102.019L35.0383 101.499V109H36.5333V99.9H35.2333L32.8413 100.745ZM48.1952 109V107.557H44.4252L46.4792 105.503C47.5062 104.45 48.0262 103.462 48.0262 102.539C48.0262 101.668 47.7402 100.992 47.1682 100.485C46.5962 99.978 45.9072 99.731 45.1142 99.731C43.8532 99.731 42.7482 100.368 42.1762 101.577L43.4372 102.318C43.8012 101.564 44.3602 101.187 45.1272 101.187C45.9462 101.187 46.5312 101.707 46.5312 102.591C46.5312 103.15 46.1412 103.826 45.3742 104.593L42.2022 107.83V109H48.1952ZM55.2886 105.971V103.605H53.7806V105.971H50.9336L54.0666 99.9H52.4416L49.3086 105.971V107.362H53.7806V109H55.2886V107.362H56.3286V105.971H55.2886ZM59.1657 101.161L59.8547 100.225L59.0487 99.731L58.4767 100.81L57.9047 99.731L57.0987 100.225L57.8007 101.161L56.6177 101.083V102.019L57.8007 101.941L57.0987 102.877L57.9047 103.371L58.4767 102.292L59.0487 103.371L59.8547 102.877L59.1657 101.941L60.3357 102.019V101.083L59.1657 101.161ZM64.84 101.161L65.529 100.225L64.723 99.731L64.151 100.81L63.579 99.731L62.773 100.225L63.475 101.161L62.292 101.083V102.019L63.475 101.941L62.773 102.877L63.579 103.371L64.151 102.292L64.723 103.371L65.529 102.877L64.84 101.941L66.01 102.019V101.083L64.84 101.161ZM70.5143 101.161L71.2033 100.225L70.3973 99.731L69.8253 100.81L69.2533 99.731L68.4473 100.225L69.1493 101.161L67.9663 101.083V102.019L69.1493 101.941L68.4473 102.877L69.2533 103.371L69.8253 102.292L70.3973 103.371L71.2033 102.877L70.5143 101.941L71.6843 102.019V101.083L70.5143 101.161ZM76.1886 101.161L76.8776 100.225L76.0716 99.731L75.4996 100.81L74.9276 99.731L74.1216 100.225L74.8236 101.161L73.6406 101.083V102.019L74.8236 101.941L74.1216 102.877L74.9276 103.371L75.4996 102.292L76.0716 103.371L76.8776 102.877L76.1886 101.941L77.3586 102.019V101.083L76.1886 101.161ZM81.8629 101.161L82.5519 100.225L81.7459 99.731L81.1739 100.81L80.6019 99.731L79.7959 100.225L80.4979 101.161L79.3149 101.083V102.019L80.4979 101.941L79.7959 102.877L80.6019 103.371L81.1739 102.292L81.7459 103.371L82.5519 102.877L81.8629 101.941L83.0329 102.019V101.083L81.8629 101.161ZM87.5372 101.161L88.2262 100.225L87.4202 99.731L86.8482 100.81L86.2762 99.731L85.4702 100.225L86.1722 101.161L84.9892 101.083V102.019L86.1722 101.941L85.4702 102.877L86.2762 103.371L86.8482 102.292L87.4202 103.371L88.2262 102.877L87.5372 101.941L88.7072 102.019V101.083L87.5372 101.161ZM93.2115 101.161L93.9005 100.225L93.0945 99.731L92.5225 100.81L91.9505 99.731L91.1445 100.225L91.8465 101.161L90.6635 101.083V102.019L91.8465 101.941L91.1445 102.877L91.9505 103.371L92.5225 102.292L93.0945 103.371L93.9005 102.877L93.2115 101.941L94.3815 102.019V101.083L93.2115 101.161ZM98.8858 101.161L99.5748 100.225L98.7688 99.731L98.1968 100.81L97.6248 99.731L96.8188 100.225L97.5208 101.161L96.3378 101.083V102.019L97.5208 101.941L96.8188 102.877L97.6248 103.371L98.1968 102.292L98.7688 103.371L99.5748 102.877L98.8858 101.941L100.056 102.019V101.083L98.8858 101.161ZM105.262 101.33H109.422L106.276 109H107.849L111.047 101.2V99.9H105.262V101.33ZM118.148 101.174V99.9H112.558V101.304H116.367L114.404 103.891L115.002 104.788H115.34C116.38 104.788 117.03 105.347 117.03 106.244C117.03 107.141 116.38 107.713 115.34 107.713C114.417 107.713 113.832 107.323 113.559 106.543L112.285 107.284C112.766 108.519 113.949 109.169 115.34 109.169C116.237 109.169 116.991 108.909 117.602 108.389C118.213 107.869 118.525 107.154 118.525 106.244C118.525 104.879 117.615 103.93 116.302 103.618L118.148 101.174ZM125 104.268C125.689 103.813 126.04 103.176 126.04 102.344C126.04 101.512 125.754 100.875 125.195 100.42C124.636 99.965 123.96 99.731 123.154 99.731C122.335 99.731 121.659 99.965 121.1 100.42C120.541 100.875 120.268 101.512 120.268 102.344C120.268 103.176 120.606 103.813 121.295 104.268C120.45 104.736 119.956 105.542 119.956 106.478C119.956 107.31 120.242 107.973 120.827 108.454C121.412 108.935 122.192 109.169 123.154 109.169C125.078 109.169 126.339 108.142 126.339 106.478C126.339 105.503 125.897 104.762 125 104.268ZM123.154 101.148C123.947 101.148 124.545 101.59 124.545 102.409C124.545 103.189 123.934 103.67 123.154 103.67C122.361 103.67 121.763 103.189 121.763 102.409C121.763 101.59 122.335 101.148 123.154 101.148ZM123.154 107.752C122.127 107.752 121.451 107.232 121.451 106.335C121.451 105.438 122.127 104.918 123.154 104.918C124.155 104.918 124.844 105.438 124.844 106.335C124.844 107.232 124.155 107.752 123.154 107.752ZM134.068 102.838C134.068 101.915 133.769 101.174 133.171 100.602C132.573 100.017 131.806 99.731 130.857 99.731C129.908 99.731 129.141 100.017 128.53 100.602C127.932 101.174 127.633 101.915 127.633 102.838C127.633 103.761 127.932 104.502 128.53 105.087C129.141 105.659 129.908 105.945 130.857 105.945H131.013L128.933 109H130.649L133.522 104.671C133.886 104.138 134.068 103.527 134.068 102.838ZM129.128 102.838C129.128 101.811 129.856 101.148 130.857 101.148C131.858 101.148 132.573 101.811 132.573 102.838C132.573 103.865 131.858 104.528 130.857 104.528C129.856 104.528 129.128 103.839 129.128 102.838Z" fill="white"/>
<path d="M16.62 80L13.488 71.6H12.228L9.096 80H10.284L10.968 78.116H14.748L15.432 80H16.62ZM12.852 72.932L14.364 77.072H11.352L12.852 72.932ZM22.8103 75.032C22.2943 74.24 21.5383 73.844 20.5423 73.844C19.7023 73.844 18.9823 74.156 18.3943 74.768C17.8063 75.38 17.5063 76.124 17.5063 77C17.5063 77.876 17.8063 78.632 18.3943 79.244C18.9823 79.856 19.7023 80.156 20.5423 80.156C21.5383 80.156 22.2943 79.76 22.8103 78.968V80H23.8543V71.6H22.8103V75.032ZM20.6743 79.148C20.0743 79.148 19.5703 78.944 19.1623 78.536C18.7543 78.116 18.5503 77.612 18.5503 77C18.5503 76.388 18.7543 75.884 19.1623 75.476C19.5703 75.056 20.0743 74.852 20.6743 74.852C21.2863 74.852 21.7903 75.056 22.1983 75.476C22.6063 75.884 22.8103 76.388 22.8103 77C22.8103 77.612 22.6063 78.116 22.1983 78.536C21.7903 78.944 21.2863 79.148 20.6743 79.148ZM31.6761 77.48C31.7001 77.324 31.7121 77.168 31.7121 77.012C31.7121 76.136 31.4361 75.392 30.8721 74.78C30.3201 74.156 29.6001 73.844 28.7241 73.844C27.8001 73.844 27.0441 74.144 26.4561 74.744C25.8681 75.344 25.5801 76.1 25.5801 77C25.5801 77.912 25.8801 78.668 26.4681 79.268C27.0681 79.856 27.8481 80.156 28.7961 80.156C29.9721 80.156 30.8481 79.7 31.4361 78.8L30.5481 78.296C30.1881 78.884 29.6121 79.172 28.8201 79.172C27.6801 79.172 26.8521 78.548 26.6481 77.48H31.6761ZM28.7241 74.828C29.6841 74.828 30.4761 75.428 30.6561 76.568H26.6481C26.8281 75.512 27.6081 74.828 28.7241 74.828ZM38.4444 79.244C39.0564 78.632 39.3684 77.888 39.3684 77C39.3684 76.112 39.0564 75.368 38.4444 74.756C37.8324 74.144 37.0764 73.844 36.2004 73.844C35.3244 73.844 34.5684 74.144 33.9564 74.756C33.3444 75.368 33.0444 76.112 33.0444 77C33.0444 77.888 33.3444 78.632 33.9564 79.244C34.5684 79.856 35.3244 80.156 36.2004 80.156C37.0764 80.156 37.8324 79.856 38.4444 79.244ZM36.2004 79.136C35.6124 79.136 35.1084 78.932 34.7004 78.524C34.2924 78.116 34.0884 77.612 34.0884 77C34.0884 76.388 34.2924 75.884 34.7004 75.476C35.1084 75.068 35.6124 74.864 36.2004 74.864C36.8004 74.864 37.3044 75.068 37.7124 75.476C38.1204 75.884 38.3244 76.388 38.3244 77C38.3244 77.612 38.1204 78.116 37.7124 78.524C37.3044 78.932 36.8004 79.136 36.2004 79.136ZM46.0472 75.032C45.5312 74.24 44.7752 73.844 43.7792 73.844C42.9392 73.844 42.2192 74.156 41.6312 74.768C41.0432 75.38 40.7432 76.124 40.7432 77C40.7432 77.876 41.0432 78.632 41.6312 79.244C42.2192 79.856 42.9392 80.156 43.7792 80.156C44.7752 80.156 45.5312 79.76 46.0472 78.968V80H47.0912V71.6H46.0472V75.032ZM43.9112 79.148C43.3112 79.148 42.8072 78.944 42.3992 78.536C41.9912 78.116 41.7872 77.612 41.7872 77C41.7872 76.388 41.9912 75.884 42.3992 75.476C42.8072 75.056 43.3112 74.852 43.9112 74.852C44.5232 74.852 45.0272 75.056 45.4352 75.476C45.8432 75.884 46.0472 76.388 46.0472 77C46.0472 77.612 45.8432 78.116 45.4352 78.536C45.0272 78.944 44.5232 79.148 43.9112 79.148ZM54.1209 75.032C53.6049 74.24 52.8489 73.844 51.8529 73.844C51.0129 73.844 50.2929 74.156 49.7049 74.768C49.1169 75.38 48.8169 76.124 48.8169 77C48.8169 77.876 49.1169 78.632 49.7049 79.244C50.2929 79.856 51.0129 80.156 51.8529 80.156C52.8489 80.156 53.6049 79.76 54.1209 78.968V80H55.1649V74H54.1209V75.032ZM51.9849 79.148C51.3849 79.148 50.8809 78.944 50.4729 78.536C50.0649 78.116 49.8609 77.612 49.8609 77C49.8609 76.388 50.0649 75.884 50.4729 75.476C50.8809 75.056 51.3849 74.852 51.9849 74.852C52.5969 74.852 53.1009 75.056 53.5089 75.476C53.9169 75.884 54.1209 76.388 54.1209 77C54.1209 77.612 53.9169 78.116 53.5089 78.536C53.1009 78.944 52.5969 79.148 51.9849 79.148ZM60.4907 74H58.8947V72.32L57.8507 72.632V74H56.6627V75.008H57.8507V78.26C57.8507 79.748 58.6667 80.24 60.4907 80V79.064C59.4227 79.112 58.8947 79.184 58.8947 78.26V75.008H60.4907V74ZM66.3818 77.18C66.3818 78.524 65.6858 79.16 64.6418 79.16C63.7178 79.16 63.1538 78.596 63.1538 77.624V74H62.1098V77.684C62.1098 79.208 63.0338 80.156 64.4378 80.156C65.3138 80.156 65.9618 79.82 66.3818 79.136V80H67.4258V74H66.3818V77.18ZM70.3836 75.62C70.3836 75.104 70.8636 74.816 71.4516 74.816C72.0876 74.816 72.5196 75.068 72.7356 75.584L73.6116 75.092C73.2276 74.312 72.4236 73.844 71.4516 73.844C70.8396 73.844 70.3356 74.012 69.9276 74.348C69.5316 74.684 69.3276 75.116 69.3276 75.632C69.3276 76.904 70.5516 77.216 71.4996 77.468C72.1596 77.624 72.6876 77.888 72.6876 78.356C72.6876 78.92 72.1836 79.172 71.4996 79.172C70.7676 79.172 70.2036 78.812 70.0116 78.236L69.1116 78.752C69.4596 79.604 70.3356 80.156 71.4996 80.156C72.1596 80.156 72.6876 79.988 73.1076 79.664C73.5276 79.34 73.7436 78.896 73.7436 78.356C73.7556 77.072 72.5076 76.724 71.5716 76.52C70.9116 76.34 70.3836 76.088 70.3836 75.62ZM81.7597 80.156C82.6237 80.156 83.3197 79.94 83.8597 79.508C84.3997 79.064 84.6637 78.476 84.6637 77.744C84.6637 77.216 84.5437 76.784 84.2437 76.484C84.0397 76.244 83.9317 76.112 83.5957 75.932C83.2717 75.752 83.1757 75.692 82.7557 75.536C82.5517 75.452 82.4077 75.404 82.3117 75.368L81.8197 75.212C81.1717 75.008 80.7157 74.804 80.4517 74.612C80.1877 74.42 80.0557 74.144 80.0557 73.772C80.0557 73.004 80.6677 72.524 81.5797 72.524C82.4917 72.524 83.1277 72.956 83.4877 73.82L84.4237 73.28C83.9317 72.176 82.9117 71.444 81.5797 71.444C80.8477 71.444 80.2237 71.66 79.7077 72.092C79.1917 72.512 78.9397 73.088 78.9397 73.82C78.9397 74.432 79.1917 74.924 79.4677 75.224C79.5997 75.368 79.8037 75.512 80.0797 75.656C80.3557 75.788 80.5957 75.896 80.7757 75.968L81.5797 76.232C82.2877 76.46 82.8037 76.664 83.1037 76.868C83.4037 77.072 83.5597 77.372 83.5597 77.768C83.5597 78.548 82.9357 79.064 81.7837 79.064C80.6197 79.064 79.8637 78.56 79.5397 77.54L78.5797 78.092C79.0237 79.376 80.1877 80.156 81.7597 80.156ZM91.4658 75.032C90.9498 74.24 90.1938 73.844 89.1978 73.844C88.3578 73.844 87.6378 74.156 87.0498 74.768C86.4618 75.38 86.1618 76.124 86.1618 77C86.1618 77.876 86.4618 78.632 87.0498 79.244C87.6378 79.856 88.3578 80.156 89.1978 80.156C90.1938 80.156 90.9498 79.76 91.4658 78.968V80H92.5098V74H91.4658V75.032ZM89.3298 79.148C88.7298 79.148 88.2258 78.944 87.8178 78.536C87.4098 78.116 87.2058 77.612 87.2058 77C87.2058 76.388 87.4098 75.884 87.8178 75.476C88.2258 75.056 88.7298 74.852 89.3298 74.852C89.9418 74.852 90.4458 75.056 90.8538 75.476C91.2618 75.884 91.4658 76.388 91.4658 77C91.4658 77.612 91.2618 78.116 90.8538 78.536C90.4458 78.944 89.9418 79.148 89.3298 79.148ZM95.6155 80V71.24H94.5715V80H95.6155ZM102.656 75.032C102.14 74.24 101.384 73.844 100.388 73.844C99.5482 73.844 98.8282 74.156 98.2402 74.768C97.6522 75.38 97.3522 76.124 97.3522 77C97.3522 77.876 97.6522 78.632 98.2402 79.244C98.8282 79.856 99.5482 80.156 100.388 80.156C101.384 80.156 102.14 79.76 102.656 78.968V80H103.7V74H102.656V75.032ZM100.52 79.148C99.9202 79.148 99.4162 78.944 99.0082 78.536C98.6002 78.116 98.3962 77.612 98.3962 77C98.3962 76.388 98.6002 75.884 99.0082 75.476C99.4162 75.056 99.9202 74.852 100.52 74.852C101.132 74.852 101.636 75.056 102.044 75.476C102.452 75.884 102.656 76.388 102.656 77C102.656 77.612 102.452 78.116 102.044 78.536C101.636 78.944 101.132 79.148 100.52 79.148ZM112.242 73.844C111.402 73.844 110.778 74.18 110.358 74.864C109.986 74.18 109.398 73.844 108.594 73.844C107.814 73.844 107.214 74.168 106.806 74.804V74H105.762V80H106.806V76.664C106.806 75.452 107.466 74.84 108.342 74.84C109.122 74.84 109.614 75.38 109.614 76.304V80H110.658V76.664C110.658 75.428 111.234 74.84 112.134 74.84C112.938 74.84 113.454 75.38 113.454 76.304V80H114.498V76.268C114.498 74.78 113.586 73.844 112.242 73.844Z" fill="white"/>
<path d="M19.9395 22.7305V22.9834C19.6113 23.0426 19.363 23.1475 19.1943 23.2979C18.9528 23.5212 18.7386 23.863 18.5518 24.3232L15.3184 32.2119H15.0654L11.5928 24.2207C11.415 23.8105 11.2897 23.5599 11.2168 23.4688C11.1029 23.3275 10.9616 23.2181 10.793 23.1406C10.6289 23.0586 10.4056 23.0062 10.123 22.9834V22.7305H13.9102V22.9834C13.4818 23.0244 13.2038 23.0973 13.0762 23.2021C12.9486 23.307 12.8848 23.4414 12.8848 23.6055C12.8848 23.8333 12.9896 24.1888 13.1992 24.6719L15.5576 30.1064L17.7451 24.7402C17.9593 24.2116 18.0664 23.8447 18.0664 23.6396C18.0664 23.5075 18.0003 23.3822 17.8682 23.2637C17.736 23.1406 17.5127 23.054 17.1982 23.0039C17.1755 22.9993 17.1367 22.9925 17.082 22.9834V22.7305H19.9395ZM21.2998 22.2793C21.4912 22.2793 21.653 22.3477 21.7852 22.4844C21.9219 22.6165 21.9902 22.7783 21.9902 22.9697C21.9902 23.1611 21.9219 23.3252 21.7852 23.4619C21.653 23.5986 21.4912 23.667 21.2998 23.667C21.1084 23.667 20.9443 23.5986 20.8076 23.4619C20.6709 23.3252 20.6025 23.1611 20.6025 22.9697C20.6025 22.7783 20.6686 22.6165 20.8008 22.4844C20.9375 22.3477 21.1038 22.2793 21.2998 22.2793ZM21.8672 25.5537V30.585C21.8672 30.9769 21.8945 31.2389 21.9492 31.3711C22.0085 31.4987 22.0928 31.5944 22.2021 31.6582C22.3161 31.722 22.5212 31.7539 22.8174 31.7539V32H19.7754V31.7539C20.0807 31.7539 20.2858 31.7243 20.3906 31.665C20.4954 31.6058 20.5775 31.5078 20.6367 31.3711C20.7005 31.2344 20.7324 30.9723 20.7324 30.585V28.1719C20.7324 27.4928 20.7119 27.0531 20.6709 26.8525C20.639 26.7067 20.5889 26.6064 20.5205 26.5518C20.4521 26.4925 20.3587 26.4629 20.2402 26.4629C20.1126 26.4629 19.9577 26.4971 19.7754 26.5654L19.6797 26.3193L21.5664 25.5537H21.8672ZM25.4355 25.5537V26.9619C25.9596 26.0231 26.4974 25.5537 27.0488 25.5537C27.2995 25.5537 27.5068 25.6312 27.6709 25.7861C27.835 25.9365 27.917 26.112 27.917 26.3125C27.917 26.4902 27.8577 26.6406 27.7393 26.7637C27.6208 26.8867 27.4795 26.9482 27.3154 26.9482C27.1559 26.9482 26.9759 26.8708 26.7754 26.7158C26.5794 26.5563 26.4336 26.4766 26.3379 26.4766C26.2559 26.4766 26.167 26.5221 26.0713 26.6133C25.8662 26.8001 25.6543 27.1077 25.4355 27.5361V30.5371C25.4355 30.8835 25.4788 31.1455 25.5654 31.3232C25.6247 31.4463 25.7295 31.5488 25.8799 31.6309C26.0303 31.7129 26.2467 31.7539 26.5293 31.7539V32H23.3232V31.7539C23.6423 31.7539 23.8792 31.7038 24.0342 31.6035C24.1481 31.5306 24.2279 31.4144 24.2734 31.2549C24.2962 31.1774 24.3076 30.9564 24.3076 30.5918V28.165C24.3076 27.4359 24.2917 27.0029 24.2598 26.8662C24.2324 26.7249 24.1777 26.6224 24.0957 26.5586C24.0182 26.4948 23.9202 26.4629 23.8018 26.4629C23.6605 26.4629 23.501 26.4971 23.3232 26.5654L23.2549 26.3193L25.1484 25.5537H25.4355ZM30.084 23.6807V25.7383H31.5469V26.2168H30.084V30.2773C30.084 30.6829 30.141 30.9564 30.2549 31.0977C30.3734 31.2389 30.5238 31.3096 30.7061 31.3096C30.8564 31.3096 31.0023 31.264 31.1436 31.1729C31.2848 31.0771 31.3942 30.9382 31.4717 30.7559H31.7383C31.5788 31.2025 31.3532 31.5397 31.0615 31.7676C30.7699 31.9909 30.4691 32.1025 30.1592 32.1025C29.9495 32.1025 29.7445 32.0456 29.5439 31.9316C29.3434 31.8132 29.1953 31.6468 29.0996 31.4326C29.0039 31.2139 28.9561 30.8789 28.9561 30.4277V26.2168H27.9648V25.9912C28.2155 25.891 28.4707 25.7223 28.7305 25.4854C28.9948 25.2438 29.2295 24.959 29.4346 24.6309C29.5394 24.4577 29.6852 24.141 29.8721 23.6807H30.084ZM37.6514 25.7383V29.5322C37.6514 30.2568 37.6673 30.7012 37.6992 30.8652C37.7357 31.0247 37.7904 31.1364 37.8633 31.2002C37.9408 31.264 38.0296 31.2959 38.1299 31.2959C38.2712 31.2959 38.4307 31.2572 38.6084 31.1797L38.7041 31.4189L36.8311 32.1914H36.5234V30.8652C35.9857 31.4486 35.5755 31.8154 35.293 31.9658C35.0104 32.1162 34.7119 32.1914 34.3975 32.1914C34.0465 32.1914 33.7412 32.0911 33.4814 31.8906C33.2262 31.6855 33.0485 31.4235 32.9482 31.1045C32.848 30.7855 32.7979 30.3343 32.7979 29.751V26.9551C32.7979 26.6589 32.766 26.4538 32.7021 26.3398C32.6383 26.2259 32.5426 26.1393 32.415 26.0801C32.292 26.0163 32.0664 25.9867 31.7383 25.9912V25.7383H33.9326V29.9287C33.9326 30.512 34.0329 30.8949 34.2334 31.0771C34.4385 31.2594 34.6846 31.3506 34.9717 31.3506C35.1676 31.3506 35.3887 31.2891 35.6348 31.166C35.8854 31.043 36.1816 30.8083 36.5234 30.4619V26.9141C36.5234 26.5586 36.4574 26.3193 36.3252 26.1963C36.1976 26.0687 35.9287 26.0003 35.5186 25.9912V25.7383H37.6514ZM42.71 31.0977C42.0674 31.5944 41.6641 31.8815 41.5 31.959C41.2539 32.0729 40.9919 32.1299 40.7139 32.1299C40.2809 32.1299 39.9232 31.9818 39.6406 31.6855C39.3626 31.3893 39.2236 30.9997 39.2236 30.5166C39.2236 30.2113 39.292 29.9469 39.4287 29.7236C39.6156 29.4137 39.9391 29.1221 40.3994 28.8486C40.8643 28.5752 41.6344 28.2425 42.71 27.8506V27.6045C42.71 26.9801 42.6097 26.5518 42.4092 26.3193C42.2132 26.0869 41.9261 25.9707 41.5479 25.9707C41.2607 25.9707 41.0329 26.0482 40.8643 26.2031C40.6911 26.3581 40.6045 26.5358 40.6045 26.7363L40.6182 27.1328C40.6182 27.3424 40.5635 27.5042 40.4541 27.6182C40.3493 27.7321 40.2103 27.7891 40.0371 27.7891C39.8685 27.7891 39.7295 27.7298 39.6201 27.6113C39.5153 27.4928 39.4629 27.3311 39.4629 27.126C39.4629 26.734 39.6634 26.374 40.0645 26.0459C40.4655 25.7178 41.0283 25.5537 41.7529 25.5537C42.3089 25.5537 42.7646 25.6471 43.1201 25.834C43.389 25.9753 43.5872 26.1963 43.7148 26.4971C43.7969 26.693 43.8379 27.0941 43.8379 27.7002V29.8262C43.8379 30.4232 43.8493 30.79 43.8721 30.9268C43.8949 31.0589 43.9313 31.1478 43.9814 31.1934C44.0361 31.2389 44.0977 31.2617 44.166 31.2617C44.2389 31.2617 44.3027 31.2458 44.3574 31.2139C44.4531 31.1546 44.6377 30.9883 44.9111 30.7148V31.0977C44.4007 31.7812 43.9131 32.123 43.4482 32.123C43.2249 32.123 43.0472 32.0456 42.915 31.8906C42.7829 31.7357 42.7145 31.4714 42.71 31.0977ZM42.71 30.6533V28.2676C42.0218 28.541 41.5775 28.7347 41.377 28.8486C41.0169 29.0492 40.7594 29.2588 40.6045 29.4775C40.4495 29.6963 40.3721 29.9355 40.3721 30.1953C40.3721 30.5234 40.4701 30.7969 40.666 31.0156C40.862 31.2298 41.0876 31.3369 41.3428 31.3369C41.6891 31.3369 42.1449 31.109 42.71 30.6533ZM47.5361 22.2793V30.585C47.5361 30.9769 47.5635 31.2367 47.6182 31.3643C47.6774 31.4919 47.7663 31.5898 47.8848 31.6582C48.0033 31.722 48.2243 31.7539 48.5479 31.7539V32H45.4785V31.7539C45.7656 31.7539 45.9616 31.7243 46.0664 31.665C46.1712 31.6058 46.2533 31.5078 46.3125 31.3711C46.3717 31.2344 46.4014 30.9723 46.4014 30.585V24.8975C46.4014 24.1911 46.3854 23.7581 46.3535 23.5986C46.3216 23.4346 46.2692 23.3229 46.1963 23.2637C46.1279 23.2044 46.0391 23.1748 45.9297 23.1748C45.8112 23.1748 45.6608 23.2113 45.4785 23.2842L45.3623 23.0449L47.2285 22.2793H47.5361ZM59.0205 22.9834V22.7305H62.3018V22.9834H61.9531C61.5885 22.9834 61.3083 23.1361 61.1123 23.4414C61.0166 23.5827 60.9688 23.9108 60.9688 24.4258V28.1855C60.9688 29.1152 60.8753 29.8376 60.6885 30.3525C60.5062 30.863 60.1439 31.3027 59.6016 31.6719C59.0638 32.0365 58.3301 32.2188 57.4004 32.2188C56.3887 32.2188 55.6208 32.0433 55.0967 31.6924C54.5726 31.3415 54.2012 30.8698 53.9824 30.2773C53.8366 29.8717 53.7637 29.1107 53.7637 27.9941V24.3711C53.7637 23.8014 53.6839 23.4277 53.5244 23.25C53.3695 23.0723 53.1165 22.9834 52.7656 22.9834H52.417V22.7305H56.4229V22.9834H56.0674C55.6846 22.9834 55.4111 23.1042 55.2471 23.3457C55.1331 23.5098 55.0762 23.8516 55.0762 24.3711V28.4111C55.0762 28.7712 55.1081 29.1836 55.1719 29.6484C55.2402 30.1133 55.361 30.4756 55.5342 30.7354C55.7074 30.9951 55.9557 31.2093 56.2793 31.3779C56.6074 31.5465 57.0085 31.6309 57.4824 31.6309C58.0885 31.6309 58.6309 31.4987 59.1094 31.2344C59.5879 30.9701 59.9137 30.6328 60.0869 30.2227C60.2646 29.8079 60.3535 29.1084 60.3535 28.124V24.3711C60.3535 23.7923 60.2897 23.43 60.1621 23.2842C59.9844 23.0837 59.7201 22.9834 59.3691 22.9834H59.0205ZM68.8779 22.5186V25.7246H68.625C68.543 25.1094 68.3949 24.6195 68.1807 24.2549C67.971 23.8903 67.6702 23.6009 67.2783 23.3867C66.8864 23.1725 66.4808 23.0654 66.0615 23.0654C65.5876 23.0654 65.1956 23.2113 64.8857 23.5029C64.5758 23.79 64.4209 24.1182 64.4209 24.4873C64.4209 24.7699 64.5189 25.0273 64.7148 25.2598C64.9974 25.6016 65.6696 26.0573 66.7314 26.627C67.5973 27.0918 68.1875 27.4495 68.502 27.7002C68.821 27.9463 69.0648 28.238 69.2334 28.5752C69.4066 28.9124 69.4932 29.2656 69.4932 29.6348C69.4932 30.3366 69.2197 30.9427 68.6729 31.4531C68.1305 31.959 67.431 32.2119 66.5742 32.2119C66.3053 32.2119 66.0524 32.1914 65.8154 32.1504C65.6742 32.1276 65.3802 32.0456 64.9336 31.9043C64.4915 31.7585 64.2113 31.6855 64.0928 31.6855C63.9788 31.6855 63.8877 31.7197 63.8193 31.7881C63.7555 31.8564 63.7077 31.9977 63.6758 32.2119H63.4229V29.0332H63.6758C63.7943 29.6986 63.9538 30.1976 64.1543 30.5303C64.3548 30.8584 64.6602 31.1318 65.0703 31.3506C65.485 31.5693 65.9385 31.6787 66.4307 31.6787C67.0003 31.6787 67.4492 31.5283 67.7773 31.2275C68.11 30.9268 68.2764 30.5713 68.2764 30.1611C68.2764 29.9333 68.2126 29.7031 68.085 29.4707C67.9619 29.2383 67.7682 29.0218 67.5039 28.8213C67.3262 28.6846 66.8408 28.3952 66.0479 27.9531C65.2549 27.5065 64.6898 27.151 64.3525 26.8867C64.0199 26.6224 63.7669 26.3307 63.5938 26.0117C63.4206 25.6927 63.334 25.3418 63.334 24.959C63.334 24.2936 63.5892 23.7217 64.0996 23.2432C64.61 22.7601 65.2594 22.5186 66.0479 22.5186C66.54 22.5186 67.0618 22.6393 67.6133 22.8809C67.8685 22.9948 68.0485 23.0518 68.1533 23.0518C68.2718 23.0518 68.3675 23.0176 68.4404 22.9492C68.5179 22.8763 68.5794 22.7327 68.625 22.5186H68.8779ZM70.4912 32V31.7471H70.8398C71.2318 31.7471 71.5098 31.6217 71.6738 31.3711C71.7741 31.2207 71.8242 30.8835 71.8242 30.3594V24.3711C71.8242 23.7923 71.7604 23.43 71.6328 23.2842C71.4551 23.0837 71.1908 22.9834 70.8398 22.9834H70.4912V22.7305H74.2646C75.6501 22.7305 76.7028 22.8877 77.4229 23.2021C78.1475 23.5166 78.7285 24.0407 79.166 24.7744C79.6081 25.5081 79.8291 26.3558 79.8291 27.3174C79.8291 28.6071 79.4372 29.6849 78.6533 30.5508C77.7738 31.5169 76.4339 32 74.6338 32H70.4912ZM73.1367 31.3301C73.7155 31.4577 74.2008 31.5215 74.5928 31.5215C75.6501 31.5215 76.5273 31.1501 77.2246 30.4072C77.9219 29.6644 78.2705 28.6572 78.2705 27.3857C78.2705 26.1051 77.9219 25.0957 77.2246 24.3574C76.5273 23.6191 75.6318 23.25 74.5381 23.25C74.1279 23.25 73.6608 23.3161 73.1367 23.4482V31.3301ZM92.2979 22.5186L92.5098 25.6699H92.2979C92.0153 24.7266 91.612 24.0475 91.0879 23.6328C90.5638 23.2181 89.9349 23.0107 89.2012 23.0107C88.5859 23.0107 88.0299 23.168 87.5332 23.4824C87.0365 23.7923 86.6445 24.2891 86.3574 24.9727C86.0749 25.6562 85.9336 26.5062 85.9336 27.5225C85.9336 28.361 86.068 29.0879 86.3369 29.7031C86.6058 30.3184 87.0091 30.79 87.5469 31.1182C88.0892 31.4463 88.7067 31.6104 89.3994 31.6104C90.001 31.6104 90.5319 31.4827 90.9922 31.2275C91.4525 30.9678 91.9583 30.4551 92.5098 29.6895L92.7217 29.8262C92.2568 30.651 91.7145 31.2549 91.0947 31.6377C90.4749 32.0205 89.7389 32.2119 88.8867 32.2119C87.3509 32.2119 86.1615 31.6423 85.3184 30.5029C84.6895 29.6553 84.375 28.6572 84.375 27.5088C84.375 26.5837 84.5824 25.7337 84.9971 24.959C85.4118 24.1842 85.9814 23.585 86.7061 23.1611C87.4352 22.7327 88.2305 22.5186 89.0918 22.5186C89.7617 22.5186 90.4225 22.6826 91.0742 23.0107C91.2656 23.111 91.4023 23.1611 91.4844 23.1611C91.6074 23.1611 91.7145 23.1178 91.8057 23.0312C91.9242 22.9082 92.0085 22.7373 92.0586 22.5186H92.2979ZM97.1924 31.0977C96.5498 31.5944 96.1465 31.8815 95.9824 31.959C95.7363 32.0729 95.4743 32.1299 95.1963 32.1299C94.7633 32.1299 94.4056 31.9818 94.123 31.6855C93.8451 31.3893 93.7061 30.9997 93.7061 30.5166C93.7061 30.2113 93.7744 29.9469 93.9111 29.7236C94.098 29.4137 94.4215 29.1221 94.8818 28.8486C95.3467 28.5752 96.1169 28.2425 97.1924 27.8506V27.6045C97.1924 26.9801 97.0921 26.5518 96.8916 26.3193C96.6956 26.0869 96.4085 25.9707 96.0303 25.9707C95.7432 25.9707 95.5153 26.0482 95.3467 26.2031C95.1735 26.3581 95.0869 26.5358 95.0869 26.7363L95.1006 27.1328C95.1006 27.3424 95.0459 27.5042 94.9365 27.6182C94.8317 27.7321 94.6927 27.7891 94.5195 27.7891C94.3509 27.7891 94.2119 27.7298 94.1025 27.6113C93.9977 27.4928 93.9453 27.3311 93.9453 27.126C93.9453 26.734 94.1458 26.374 94.5469 26.0459C94.9479 25.7178 95.5107 25.5537 96.2354 25.5537C96.7913 25.5537 97.2471 25.6471 97.6025 25.834C97.8714 25.9753 98.0697 26.1963 98.1973 26.4971C98.2793 26.693 98.3203 27.0941 98.3203 27.7002V29.8262C98.3203 30.4232 98.3317 30.79 98.3545 30.9268C98.3773 31.0589 98.4137 31.1478 98.4639 31.1934C98.5186 31.2389 98.5801 31.2617 98.6484 31.2617C98.7214 31.2617 98.7852 31.2458 98.8398 31.2139C98.9355 31.1546 99.1201 30.9883 99.3936 30.7148V31.0977C98.8831 31.7812 98.3955 32.123 97.9307 32.123C97.7074 32.123 97.5296 32.0456 97.3975 31.8906C97.2653 31.7357 97.1969 31.4714 97.1924 31.0977ZM97.1924 30.6533V28.2676C96.5042 28.541 96.0599 28.7347 95.8594 28.8486C95.4993 29.0492 95.2419 29.2588 95.0869 29.4775C94.932 29.6963 94.8545 29.9355 94.8545 30.1953C94.8545 30.5234 94.9525 30.7969 95.1484 31.0156C95.3444 31.2298 95.57 31.3369 95.8252 31.3369C96.1715 31.3369 96.6273 31.109 97.1924 30.6533ZM101.697 25.5537V26.9619C102.221 26.0231 102.759 25.5537 103.311 25.5537C103.561 25.5537 103.769 25.6312 103.933 25.7861C104.097 25.9365 104.179 26.112 104.179 26.3125C104.179 26.4902 104.119 26.6406 104.001 26.7637C103.882 26.8867 103.741 26.9482 103.577 26.9482C103.418 26.9482 103.238 26.8708 103.037 26.7158C102.841 26.5563 102.695 26.4766 102.6 26.4766C102.518 26.4766 102.429 26.5221 102.333 26.6133C102.128 26.8001 101.916 27.1077 101.697 27.5361V30.5371C101.697 30.8835 101.741 31.1455 101.827 31.3232C101.886 31.4463 101.991 31.5488 102.142 31.6309C102.292 31.7129 102.508 31.7539 102.791 31.7539V32H99.585V31.7539C99.904 31.7539 100.141 31.7038 100.296 31.6035C100.41 31.5306 100.49 31.4144 100.535 31.2549C100.558 31.1774 100.569 30.9564 100.569 30.5918V28.165C100.569 27.4359 100.553 27.0029 100.521 26.8662C100.494 26.7249 100.439 26.6224 100.357 26.5586C100.28 26.4948 100.182 26.4629 100.063 26.4629C99.9222 26.4629 99.7627 26.4971 99.585 26.5654L99.5166 26.3193L101.41 25.5537H101.697ZM108.95 31.2959C108.645 31.6149 108.346 31.8451 108.055 31.9863C107.763 32.123 107.449 32.1914 107.111 32.1914C106.428 32.1914 105.831 31.9066 105.32 31.3369C104.81 30.7627 104.555 30.0267 104.555 29.1289C104.555 28.2311 104.837 27.4108 105.402 26.668C105.967 25.9206 106.694 25.5469 107.583 25.5469C108.134 25.5469 108.59 25.7223 108.95 26.0732V24.918C108.95 24.2025 108.932 23.7627 108.896 23.5986C108.864 23.4346 108.811 23.3229 108.738 23.2637C108.665 23.2044 108.574 23.1748 108.465 23.1748C108.346 23.1748 108.189 23.2113 107.993 23.2842L107.904 23.0449L109.771 22.2793H110.078V29.5186C110.078 30.2523 110.094 30.7012 110.126 30.8652C110.162 31.0247 110.217 31.1364 110.29 31.2002C110.368 31.264 110.456 31.2959 110.557 31.2959C110.68 31.2959 110.844 31.2572 111.049 31.1797L111.124 31.4189L109.265 32.1914H108.95V31.2959ZM108.95 30.8174V27.5908C108.923 27.2809 108.841 26.9984 108.704 26.7432C108.567 26.488 108.385 26.2965 108.157 26.1689C107.934 26.0368 107.715 25.9707 107.501 25.9707C107.1 25.9707 106.742 26.1507 106.428 26.5107C106.013 26.9847 105.806 27.6774 105.806 28.5889C105.806 29.5094 106.006 30.2158 106.407 30.708C106.808 31.1956 107.255 31.4395 107.747 31.4395C108.162 31.4395 108.563 31.2321 108.95 30.8174Z" fill="white" fill-opacity="0.8"/>
<path d="M200.772 29.2849C199.53 29.2849 198.491 28.947 197.646 28.2627L198.525 27.0377C199.159 27.5361 199.902 27.7896 200.764 27.7896C201.186 27.7896 201.524 27.7135 201.786 27.5699C202.031 27.4263 202.158 27.232 202.158 26.987C202.158 26.742 202.04 26.573 201.803 26.4378C201.566 26.3027 201.195 26.2097 200.688 26.1591C199.708 26.0408 198.99 25.8211 198.534 25.4663C198.069 25.1199 197.841 24.613 197.841 23.9625C197.841 23.2867 198.12 22.7544 198.669 22.3405C199.218 21.9349 199.928 21.7322 200.806 21.7322C201.862 21.7322 202.775 22.011 203.535 22.5601L202.741 23.7429C202.175 23.3542 201.558 23.1599 200.874 23.1599C200.451 23.1599 200.122 23.2275 199.877 23.3627C199.615 23.4979 199.497 23.6837 199.497 23.9203C199.497 24.1484 199.606 24.3173 199.826 24.4441C200.037 24.5708 200.401 24.6637 200.908 24.7229C202.842 24.951 203.814 25.7028 203.814 26.9954C203.814 27.6882 203.535 28.2289 202.977 28.6513C202.411 29.0737 201.676 29.2849 200.772 29.2849ZM207.92 23.9203C208.629 23.9203 209.221 24.1653 209.685 24.6553C210.141 25.1453 210.37 25.7873 210.37 26.573C210.37 27.3587 210.141 27.9923 209.685 28.4823C209.221 28.9723 208.629 29.2258 207.92 29.2258C207.294 29.2258 206.762 29.023 206.34 28.6259V31.3294H204.726V24.0216H206.129L206.23 24.6215C206.652 24.1568 207.218 23.9203 207.92 23.9203ZM206.669 27.5023C206.889 27.7389 207.176 27.8571 207.539 27.8571C207.903 27.8571 208.19 27.7389 208.418 27.5023C208.646 27.2658 208.756 26.9532 208.756 26.573C208.756 26.1928 208.646 25.8718 208.418 25.6353C208.19 25.3903 207.903 25.2804 207.539 25.2804C207.176 25.2804 206.889 25.4072 206.669 25.6437C206.45 25.8803 206.331 26.1928 206.331 26.573C206.331 26.9532 206.45 27.2658 206.669 27.5023ZM214.18 23.9118C214.712 23.9118 215.151 24.0723 215.498 24.4103L214.813 25.6015C214.543 25.4241 214.273 25.3396 214.019 25.3396C213.681 25.3396 213.402 25.4578 213.2 25.6691C213.005 25.8887 212.904 26.2182 212.904 26.6406V29.1159H211.282V24.0216H212.701L212.82 24.6637C213.149 24.1568 213.605 23.9118 214.18 23.9118ZM217.551 23.2698C217.373 23.4303 217.137 23.5148 216.858 23.5148C216.579 23.5148 216.351 23.4303 216.173 23.2698C215.996 23.1008 215.903 22.898 215.903 22.6361C215.903 22.3827 215.996 22.163 216.173 22.0025C216.351 21.8336 216.579 21.7491 216.858 21.7491C217.137 21.7491 217.365 21.8336 217.534 22.0025C217.711 22.163 217.804 22.3827 217.804 22.6361C217.804 22.898 217.719 23.1008 217.551 23.2698ZM216.038 29.1159V24.0216H217.66V29.1159H216.038ZM222.028 23.9118C222.653 23.9118 223.16 24.1146 223.54 24.5285C223.912 24.9425 224.098 25.5085 224.098 26.2435V29.1159H222.476V26.3365C222.476 26.007 222.391 25.7451 222.231 25.5592C222.062 25.3734 221.842 25.2804 221.547 25.2804C221.226 25.2804 220.981 25.3818 220.786 25.6015C220.592 25.8211 220.499 26.0999 220.499 26.4378V29.1159H218.877V24.0216H220.279L220.381 24.6215C220.786 24.1484 221.335 23.9118 222.028 23.9118ZM229.496 28.2796C230.214 28.6006 230.578 29.1497 230.578 29.9016C230.578 30.5521 230.316 31.0759 229.8 31.473C229.285 31.8532 228.609 32.0475 227.748 32.0475C226.869 32.0475 226.185 31.8194 225.678 31.3801C225.171 30.9323 224.951 30.3494 225.027 29.6228H226.582C226.573 29.9608 226.666 30.2226 226.869 30.4085C227.072 30.5944 227.367 30.6873 227.748 30.6873C228.094 30.6873 228.373 30.6113 228.584 30.4592C228.804 30.3071 228.905 30.0959 228.905 29.8425C228.905 29.5806 228.812 29.3778 228.618 29.2427C228.423 29.099 228.128 29.023 227.773 29.023C226.911 29.023 226.235 28.7865 225.728 28.3218C225.222 27.8571 224.968 27.232 224.968 26.4463C224.968 25.6944 225.222 25.0861 225.745 24.5961C226.278 24.123 226.945 23.8865 227.756 23.8865C228.187 23.8865 228.567 23.971 228.913 24.1399L229.513 23.3965L230.696 24.2498L230.02 25.0439C230.358 25.4325 230.535 25.8972 230.535 26.4463C230.535 27.2404 230.181 27.8487 229.496 28.2796ZM226.894 27.3165C227.114 27.5361 227.401 27.6544 227.756 27.6544C228.119 27.6544 228.407 27.5361 228.626 27.3249C228.846 27.1053 228.956 26.8096 228.956 26.4463C228.956 26.083 228.846 25.7873 228.626 25.5677C228.407 25.3565 228.119 25.2466 227.756 25.2466C227.401 25.2466 227.114 25.3565 226.894 25.5677C226.675 25.7873 226.565 26.083 226.565 26.4463C226.565 26.8096 226.675 27.0968 226.894 27.3165Z" fill="white"/>
<path fill-rule="evenodd" clip-rule="evenodd" d="M190.593 20.9967C189.976 20.7348 189.317 20.6081 188.641 20.6081C187.306 20.6081 186.039 21.1319 185.093 22.0697C184.155 23.0159 183.631 24.2831 183.631 25.6179C183.631 26.5641 183.885 27.4765 184.392 28.2791L184.56 28.5494L182.685 29.276L182.567 29.0817C181.967 28.0257 181.654 26.8345 181.654 25.6179C181.654 23.7593 182.389 21.9936 183.699 20.6757C185.017 19.3662 186.782 18.6312 188.641 18.6312C190.5 18.6312 192.265 19.3662 193.583 20.6757C193.794 20.8869 193.989 21.115 194.175 21.3431L194.394 21.6303L185.566 25.0603L185.574 24.6548C185.608 23.5903 185.819 22.8469 186.85 22.4498L190.593 20.9967ZM185.574 25.7193L189.57 24.1648C190.542 23.7931 191.513 24.1817 191.513 25.3476V25.525L187.517 27.071C187.239 27.1808 186.918 27.2062 186.63 27.1639C185.954 27.0541 185.574 26.5726 185.574 25.8967V25.7193ZM186.605 30.2053C187.239 30.4841 187.931 30.6362 188.641 30.6362C189.976 30.6362 191.243 30.1124 192.189 29.1662C193.135 28.22 193.659 26.9527 193.659 25.6179C193.659 24.6548 193.38 23.7171 192.857 22.906L192.679 22.6272L194.563 21.9007L194.673 22.095C195.307 23.1679 195.628 24.376 195.628 25.6179C195.628 27.4765 194.901 29.2422 193.583 30.5601C192.265 31.8781 190.5 32.6046 188.641 32.6046C186.782 32.6046 185.017 31.8781 183.699 30.5601C183.471 30.332 183.259 30.087 183.065 29.8336L182.854 29.5463L191.522 26.1839L191.513 26.581C191.48 27.6455 191.268 28.3889 190.238 28.786L186.605 30.2053Z" fill="white"/>
<path d="M105.219 140.117C105.795 140.117 106.326 139.982 106.803 139.712C107.289 139.433 107.667 139.064 107.928 138.605L107.028 138.092C106.704 138.713 106.011 139.109 105.219 139.109C104.544 139.109 104.004 138.893 103.581 138.47C103.167 138.047 102.96 137.507 102.96 136.85C102.96 136.193 103.167 135.653 103.581 135.23C104.004 134.807 104.544 134.591 105.219 134.591C106.011 134.591 106.695 134.987 107.028 135.608L107.928 135.086C107.388 134.159 106.362 133.583 105.219 133.583C104.274 133.583 103.482 133.898 102.861 134.528C102.24 135.149 101.925 135.923 101.925 136.85C101.925 137.777 102.24 138.551 102.861 139.181C103.482 139.802 104.274 140.117 105.219 140.117ZM111.948 140L114.135 133.7H113.01L111.327 138.749L109.653 133.7H108.519L110.706 140H111.948ZM118.012 140L120.199 133.7H119.074L117.391 138.749L115.717 133.7H114.583L116.77 140H118.012ZM120.903 136.058C120.867 136.634 121.668 136.967 122.055 136.535C122.487 136.148 122.154 135.347 121.578 135.383C121.191 135.383 120.903 135.671 120.903 136.058ZM121.578 138.758C121.191 138.758 120.903 139.064 120.903 139.433C120.903 139.802 121.209 140.108 121.578 140.108C121.947 140.108 122.253 139.802 122.253 139.433C122.253 139.064 121.947 138.758 121.578 138.758ZM130.343 139.226C130.784 138.632 131 137.84 131 136.85C131 135.86 130.784 135.068 130.343 134.474C129.911 133.88 129.308 133.583 128.525 133.583C127.742 133.583 127.139 133.88 126.698 134.474C126.266 135.068 126.05 135.86 126.05 136.85C126.05 137.84 126.266 138.632 126.698 139.226C127.139 139.82 127.742 140.117 128.525 140.117C129.308 140.117 129.911 139.82 130.343 139.226ZM128.525 139.109C127.598 139.109 127.085 138.299 127.085 136.85C127.085 135.401 127.598 134.591 128.525 134.591C129.461 134.591 129.965 135.401 129.965 136.85C129.965 138.299 129.461 139.109 128.525 139.109ZM135.526 136.724C136.003 136.409 136.246 135.968 136.246 135.392C136.246 134.816 136.048 134.375 135.661 134.06C135.274 133.745 134.806 133.583 134.248 133.583C133.681 133.583 133.213 133.745 132.826 134.06C132.439 134.375 132.25 134.816 132.25 135.392C132.25 135.968 132.484 136.409 132.961 136.724C132.376 137.048 132.034 137.606 132.034 138.254C132.034 138.83 132.232 139.289 132.637 139.622C133.042 139.955 133.582 140.117 134.248 140.117C135.58 140.117 136.453 139.406 136.453 138.254C136.453 137.579 136.147 137.066 135.526 136.724ZM134.248 134.564C134.797 134.564 135.211 134.87 135.211 135.437C135.211 135.977 134.788 136.31 134.248 136.31C133.699 136.31 133.285 135.977 133.285 135.437C133.285 134.87 133.681 134.564 134.248 134.564ZM134.248 139.136C133.537 139.136 133.069 138.776 133.069 138.155C133.069 137.534 133.537 137.174 134.248 137.174C134.941 137.174 135.418 137.534 135.418 138.155C135.418 138.776 134.941 139.136 134.248 139.136ZM141.804 135.734C141.804 135.095 141.597 134.582 141.183 134.186C140.769 133.781 140.238 133.583 139.581 133.583C138.924 133.583 138.393 133.781 137.97 134.186C137.556 134.582 137.349 135.095 137.349 135.734C137.349 136.373 137.556 136.886 137.97 137.291C138.393 137.687 138.924 137.885 139.581 137.885H139.689L138.249 140H139.437L141.426 137.003C141.678 136.634 141.804 136.211 141.804 135.734ZM138.384 135.734C138.384 135.023 138.888 134.564 139.581 134.564C140.274 134.564 140.769 135.023 140.769 135.734C140.769 136.445 140.274 136.904 139.581 136.904C138.888 136.904 138.384 136.427 138.384 135.734Z" fill="white"/>
<path d="M13.474 140L15.661 133.7H14.536L12.853 138.749L11.179 133.7H10.045L12.232 140H13.474ZM19.659 136.139C19.29 135.635 18.768 135.383 18.084 135.383C17.463 135.383 16.941 135.608 16.5 136.067C16.059 136.526 15.843 137.084 15.843 137.75C15.843 138.407 16.059 138.974 16.5 139.433C16.941 139.892 17.463 140.117 18.084 140.117C18.768 140.117 19.29 139.865 19.659 139.352V140H20.631V135.5H19.659V136.139ZM17.22 138.785C16.95 138.506 16.815 138.164 16.815 137.75C16.815 137.336 16.95 136.994 17.22 136.724C17.49 136.445 17.832 136.31 18.237 136.31C18.642 136.31 18.984 136.445 19.254 136.724C19.524 136.994 19.659 137.336 19.659 137.75C19.659 138.164 19.524 138.506 19.254 138.785C18.984 139.055 18.642 139.19 18.237 139.19C17.832 139.19 17.49 139.055 17.22 138.785ZM23.0959 140V133.43H22.1239V140H23.0959ZM25.5025 134.645C25.7545 134.393 25.7545 134.015 25.5115 133.772C25.2685 133.52 24.8725 133.52 24.6295 133.772C24.3865 134.015 24.3865 134.393 24.6295 134.645C24.8815 134.888 25.2595 134.888 25.5025 134.645ZM25.5565 140V135.5H24.5845V140H25.5565ZM30.6091 136.139C30.2401 135.635 29.7181 135.383 29.0341 135.383C28.4131 135.383 27.8911 135.608 27.4501 136.067C27.0091 136.526 26.7931 137.084 26.7931 137.75C26.7931 138.407 27.0091 138.974 27.4501 139.433C27.8911 139.892 28.4131 140.117 29.0341 140.117C29.7181 140.117 30.2401 139.865 30.6091 139.352V140H31.5811V133.7H30.6091V136.139ZM28.1701 138.785C27.9001 138.506 27.7651 138.164 27.7651 137.75C27.7651 137.336 27.9001 136.994 28.1701 136.724C28.4401 136.445 28.7821 136.31 29.1871 136.31C29.5921 136.31 29.9341 136.445 30.2041 136.724C30.4741 136.994 30.6091 137.336 30.6091 137.75C30.6091 138.164 30.4741 138.506 30.2041 138.785C29.9341 139.055 29.5921 139.19 29.1871 139.19C28.7821 139.19 28.4401 139.055 28.1701 138.785ZM35.252 133.7V134.69H37.034V140H38.069V134.69H39.842V133.7H35.252ZM43.2714 135.383C42.6324 135.383 42.1734 135.617 41.8764 136.076V133.7H40.9044V140H41.8764V137.588C41.8764 136.715 42.3354 136.292 43.0194 136.292C43.6404 136.292 44.0274 136.661 44.0274 137.336V140H44.9994V137.237C44.9994 136.085 44.3064 135.383 43.2714 135.383ZM47.378 135.5H46.406V140H47.378V137.732C47.378 137.273 47.513 136.94 47.792 136.742C48.071 136.535 48.395 136.445 48.764 136.472V135.419C48.089 135.419 47.621 135.698 47.378 136.256V135.5ZM52.8752 137.912C52.8752 138.785 52.4162 139.208 51.7322 139.208C51.1112 139.208 50.7242 138.839 50.7242 138.164V135.5H49.7522V138.263C49.7522 139.415 50.4452 140.117 51.4802 140.117C52.1192 140.117 52.5782 139.883 52.8752 139.424V140H53.8472V135.5H52.8752V137.912ZM55.2538 136.058C55.2178 136.634 56.0188 136.967 56.4058 136.535C56.8378 136.148 56.5048 135.347 55.9288 135.383C55.5418 135.383 55.2538 135.671 55.2538 136.058ZM55.9288 138.758C55.5418 138.758 55.2538 139.064 55.2538 139.433C55.2538 139.802 55.5598 140.108 55.9288 140.108C56.2978 140.108 56.6038 139.802 56.6038 139.433C56.6038 139.064 56.2978 138.758 55.9288 138.758ZM64.6937 139.226C65.1347 138.632 65.3507 137.84 65.3507 136.85C65.3507 135.86 65.1347 135.068 64.6937 134.474C64.2617 133.88 63.6587 133.583 62.8757 133.583C62.0927 133.583 61.4897 133.88 61.0487 134.474C60.6167 135.068 60.4007 135.86 60.4007 136.85C60.4007 137.84 60.6167 138.632 61.0487 139.226C61.4897 139.82 62.0927 140.117 62.8757 140.117C63.6587 140.117 64.2617 139.82 64.6937 139.226ZM62.8757 139.109C61.9487 139.109 61.4357 138.299 61.4357 136.85C61.4357 135.401 61.9487 134.591 62.8757 134.591C63.8117 134.591 64.3157 135.401 64.3157 136.85C64.3157 138.299 63.8117 139.109 62.8757 139.109ZM68.4096 135.815L69.8496 133.7H68.6706L66.6726 136.697C66.4206 137.066 66.2946 137.489 66.2946 137.966C66.2946 138.605 66.5016 139.118 66.9156 139.523C67.3296 139.919 67.8696 140.117 68.5266 140.117C69.1836 140.117 69.7146 139.919 70.1286 139.523C70.5426 139.118 70.7496 138.605 70.7496 137.966C70.7496 137.327 70.5426 136.814 70.1286 136.418C69.7146 136.013 69.1836 135.815 68.5266 135.815H68.4096ZM68.5266 139.136C67.8156 139.136 67.3296 138.677 67.3296 137.966C67.3296 137.255 67.8156 136.796 68.5266 136.796C69.2196 136.796 69.7146 137.255 69.7146 137.966C69.7146 138.677 69.2196 139.136 68.5266 139.136ZM75.7439 132.8H75.2489L71.6489 140.9H72.1439L75.7439 132.8ZM80.8505 140V139.001H78.2405L79.6625 137.579C80.3735 136.85 80.7335 136.166 80.7335 135.527C80.7335 134.924 80.5355 134.456 80.1395 134.105C79.7435 133.754 79.2665 133.583 78.7175 133.583C77.8445 133.583 77.0795 134.024 76.6835 134.861L77.5565 135.374C77.8085 134.852 78.1955 134.591 78.7265 134.591C79.2935 134.591 79.6985 134.951 79.6985 135.563C79.6985 135.95 79.4285 136.418 78.8975 136.949L76.7015 139.19V140H80.8505ZM81.5054 134.69H84.3854L82.2074 140H83.2964L85.5104 134.6V133.7H81.5054V134.69ZM85.6259 138.92L85.2659 141.26H86.0759L86.7059 138.92H85.6259Z" fill="white"/>
</g>
<defs>
<linearGradient id="paint0_linear_4301_47391" x1="-24.5" y1="16.9937" x2="132.604" y2="211.873" gradientUnits="userSpaceOnUse">
<stop stop-color="#6199DB"/>
<stop offset="1" stop-color="#4BCA69"/>
</linearGradient>
<clipPath id="clip0_4301_47391">
<rect width="245" height="154.488" rx="8.84471" fill="white"/>
</clipPath>
</defs>
</svg>
